<svg width="25" height="23" viewBox="0 0 25 23" fill="none" xmlns="http://www.w3.org/2000/svg">
<path d="M6.94444 19.9444C5.83333 19.9444 4.72222 18.9722 4.16667 18.5556C1.38889 16.6111 0.555556 15.9167 0 15.5V21.3333C0 22.1003 0.621962 22.7222 1.38889 22.7222H12.5C13.2669 22.7222 13.8889 22.1003 13.8889 21.3333V15.5C13.3333 15.9167 12.5 16.6111 9.72222 18.5556C9.16667 18.9722 8.05556 19.9444 6.94444 19.9444ZM12.5 11.6111H1.38889C0.621962 11.6111 0 12.2331 0 13V13.6944C1.11111 14.5278 0.972222 14.5278 5 17.4444C5.41667 17.7222 6.25 18.5556 6.94444 18.5556C7.63889 18.5556 8.47222 17.7222 8.88889 17.5833C12.9167 14.6667 12.7778 14.6667 13.8889 13.8333V13C13.8889 12.2331 13.2669 11.6111 12.5 11.6111ZM23.6111 7.44444H9.72222C8.95529 7.44444 8.33333 8.06641 8.33333 8.83333V10.2222H12.5C13.9414 10.2222 15.1298 11.3255 15.2652 12.7318L15.2778 12.7222V18.5556H23.6111C24.378 18.5556 25 17.9336 25 17.1667V8.83333C25 8.06641 24.378 7.44444 23.6111 7.44444ZM22.2222 13H19.4444V10.2222H22.2222V13ZM6.94444 8.83333C6.94444 7.30165 8.19054 6.05556 9.72222 6.05556H19.4444V1.88889C19.4444 1.12196 18.8225 0.5 18.0556 0.5H4.16667C3.39974 0.5 2.77778 1.12196 2.77778 1.88889V10.2222H6.94444V8.83333Z" fill="#D0FD3E"/>
</svg>
